<svg width="957" height="480" viewBox="0 0 957 480" fill="none" xmlns="http://www.w3.org/2000/svg">
<g clip-path="url(#clip0_9639_97215)">
<rect x="-210.11" y="1.58594" width="1377" height="477" stroke="#bbb" stroke-width="0.75"/>
<path d="M1008.45 54.5723L-210.213 54.5723" stroke="#bbb" stroke-width="0.75"/>
<path d="M1008.45 107.523L-210.213 107.523" stroke="#bbb" stroke-width="0.75"/>
<path d="M1008.45 160.535L-210.213 160.535" stroke="#bbb" stroke-width="0.75"/>
<path d="M1008.45 266.494L-210.213 266.494" stroke="#bbb" stroke-width="0.75"/>
<path d="M1008.45 319.479L-210.213 319.479" stroke="#bbb" stroke-width="0.75"/>
<path d="M1008.45 372.273L-210.213 372.273" stroke="#bbb" stroke-width="0.75"/>
<path d="M1008.45 425.449L-210.213 425.449" stroke="#bbb" stroke-width="0.75"/>
<path d="M2.13965 1.58594L2.13968 478.586" stroke="#bbb" stroke-width="0.75"/>
<path d="M54.6396 1.58594L54.6397 478.586" stroke="#bbb" stroke-width="0.75"/>
<path d="M107.89 1.58594L107.89 478.586" stroke="#bbb" stroke-width="0.75"/>
<path d="M160.39 1.58594L160.39 478.586" stroke="#bbb" stroke-width="0.75"/>
<path d="M213.64 1.58594L213.64 478.586" stroke="#bbb" stroke-width="0.75"/>
<path d="M266.89 1.58594L266.89 478.586" stroke="#bbb" stroke-width="0.75"/>
<path d="M320.14 1.58594L320.14 478.586" stroke="#bbb" stroke-width="0.75"/>
<path d="M372.64 1.58594L372.64 478.586" stroke="#bbb" stroke-width="0.75"/>
<path d="M425.89 1.58594L425.89 478.586" stroke="#bbb" stroke-width="0.75"/>
<path d="M478.39 1.58594L478.39 478.586" stroke="#bbb" stroke-width="0.75"/>
<path d="M531.64 1.58594L531.64 478.586" stroke="#bbb" stroke-width="0.75"/>
<path d="M584.132 1.58594L584.132 478.586" stroke="#bbb" stroke-width="0.75"/>
<path d="M638.132 1.58594L638.132 478.586" stroke="#bbb" stroke-width="0.75"/>
<path d="M690.632 1.58594L690.632 478.586" stroke="#bbb" stroke-width="0.75"/>
<path d="M743.882 1.58594L743.882 478.586" stroke="#bbb" stroke-width="0.75"/>
<path d="M796.382 1.58594L796.382 478.586" stroke="#bbb" stroke-width="0.75"/>
<path d="M849.633 1.58594L849.633 478.586" stroke="#bbb" stroke-width="0.75"/>
<path d="M902.133 1.58594L902.133 478.586" stroke="#bbb" stroke-width="0.75"/>
<path d="M955.383 1.58594L955.383 478.586" stroke="#bbb" stroke-width="0.75"/>
<path d="M1166.9 213.836L-210.098 213.836" stroke="#bbb" stroke-width="0.75"/>
</g>
<defs>
<clipPath id="clip0_9639_97215">
<rect width="956.25" height="478.5" fill="white" transform="translate(0.537109 0.75)"/>
</clipPath>
</defs>
</svg>
